# xmcd CD database file generated by Grip 2.5
# 
# Track frame offsets:
#       150
#       14287
#       24272
#       39452
#       52800
#       65562
#       78252
#       86880
#       103150
#       113285
#       128070
#       143075
# 
# Disc length: 2053 seconds
# 
# Revision: 3
# Processed by: cddbd v1.4b41PL1 Copyright (c) Steve Scherf et al.
# Submitted via: Grip 2.5
# 
DISCID=8d08030c
DTITLE=Hollis Taylor - Twisted Fiddle
DYEAR=1900
DGENRE=
TTITLE0=Hoedown In The Straw
TTITLE1=Texas Serenade
TTITLE2=Tumbling Tumbleweeds
TTITLE3=Jerusalem Ridge
TTITLE4=Maiden's Dare
TTITLE5=Salty
TTITLE6=Bird's Jig
TTITLE7=I'm So Lonesome I Could Cry
TTITLE8=Tom And Jerry
TTITLE9=The Wayward Wind
TTITLE10=Liza
TTITLE11=Whistler's Waltz
EXTD=
EXTT0=
EXTT1=
EXTT2=
EXTT3=
EXTT4=
EXTT5=
EXTT6=
EXTT7=
EXTT8=
EXTT9=
EXTT10=
EXTT11=
PLAYORDER=
